HIERARCHY
ROOT hip
{
	OFFSET 0.000000 0.000000 0.000000 
	CHANNELS 6 Xposition Yposition Zposition Xrotation Zrotation Yrotation
	JOINT abdomen
	{
		OFFSET 0.000000 3.402643 0.000000 
		CHANNELS 3 Xrotation Zrotation Yrotation
		JOINT chest
		{
			OFFSET 0.000000 8.438565 -0.680529 
			CHANNELS 3 Xrotation Zrotation Yrotation
			JOINT neck
			{
				OFFSET 0.000000 10.207942 -0.272212 
				CHANNELS 3 Xrotation Zrotation Yrotation
				JOINT head
				{
					OFFSET 0.000000 3.130431 0.000000 
					CHANNELS 3 Xrotation Zrotation Yrotation
					End Site
					{
						OFFSET 0.000000 3.130435 0.000000 
					}
				}
			}
			JOINT lCollar
			{
				OFFSET 3.470700 6.669187 -0.816635 
				CHANNELS 3 Yrotation Zrotation Xrotation
				JOINT lShldr
				{
					OFFSET 3.198488 0.000000 0.000000 
					CHANNELS 3 Zrotation Yrotation Xrotation
					JOINT lForeArm
					{
						OFFSET 10.139888 0.000000 0.000000 
						CHANNELS 3 Yrotation Zrotation Xrotation
						JOINT lHand
						{
							OFFSET 8.370511 0.000000 0.000000 
							CHANNELS 3 Zrotation Yrotation Xrotation
							End Site
							{
								OFFSET 4.083176 0.000000 0.000000 
							}
						}
					}
				}
			}
			JOINT rCollar
			{
				OFFSET -3.470700 6.669187 -0.816635 
				CHANNELS 3 Yrotation Zrotation Xrotation
				JOINT rShldr
				{
					OFFSET -3.198488 0.000000 0.000000 
					CHANNELS 3 Zrotation Yrotation Xrotation
					JOINT rForeArm
					{
						OFFSET -10.139888 0.000000 0.000000 
						CHANNELS 3 Yrotation Zrotation Xrotation
						JOINT rHand
						{
							OFFSET -8.370511 0.000000 0.000000 
							CHANNELS 3 Zrotation Yrotation Xrotation
							End Site
							{
								OFFSET -4.083176 0.000000 0.000000 
							}
						}
					}
				}
			}
		}
	}
	JOINT lThigh
	{
		OFFSET 5.308129 -1.633274 1.361059 
		CHANNELS 3 Xrotation Zrotation Yrotation
		JOINT lShin
		{
			OFFSET -2.041588 -20.007561 0.000000 
			CHANNELS 3 Xrotation Zrotation Yrotation
			JOINT lFoot
			{
				OFFSET 0.000000 -19.190928 -1.224953 
				CHANNELS 3 Xrotation Yrotation Zrotation
				End Site
				{
					OFFSET 0.000000 -2.449906 4.627600 
				}
			}
		}
	}
	JOINT rThigh
	{
		OFFSET -5.308129 -1.633274 1.361059 
		CHANNELS 3 Xrotation Zrotation Yrotation
		JOINT rShin
		{
			OFFSET 2.041588 -20.007561 0.000000 
			CHANNELS 3 Xrotation Zrotation Yrotation
			JOINT rFoot
			{
				OFFSET 0.000000 -19.190928 -1.224953 
				CHANNELS 3 Xrotation Yrotation Zrotation
				End Site
				{
					OFFSET 0.000000 -2.449906 4.627600 
				}
			}
		}
	}
}
MOTION
Frames: 18
Frame Time: 0.033333
2.122327 49.765659 -1.602953 2.581787 0.244113 0.859409 0.000000 0.000000 0.000000 -3.194604 -1.277538 -0.232368 -1.004823 -2.291616 -6.108768 0.568790 7.708143 -8.011331 -6.229289 -6.687650 -2.698365 -47.153568 10.422204 -7.025132 -31.956509 -3.347630 21.731682 -7.470088 -2.333870 -3.051130 7.268268 7.321044 -2.718162 36.085995 -7.143232 -24.081673 23.646166 4.983110 -14.781040 -32.918503 -4.050823 -3.333127 2.615280 5.993157 5.590185 1.131420 -3.354320 12.723229 -4.794902 0.364719 -4.619676 1.171158 -12.283788 -9.291223 -1.119523 3.545793 -6.878073 0.334871 0.087570 8.825579 
2.342221 49.749199 -1.742126 2.470730 -0.156250 -0.009792 0.000000 0.000000 0.000000 -2.969959 -1.219348 -0.031875 -0.796745 -2.151384 -7.095084 0.464188 7.581050 -9.063661 -6.226749 -6.891633 -2.523620 -52.464096 11.400251 -4.838568 -35.776531 -2.860044 28.323000 -4.256108 -5.493868 -3.044537 7.794503 8.453989 -2.615310 40.210564 -8.395240 -24.173630 27.622259 4.988561 -16.556513 -32.269833 -3.787051 -3.406080 1.443474 6.225496 5.706519 3.724764 -3.332485 13.198774 -6.110055 0.387758 -4.657712 0.818609 -12.041574 -9.109983 -1.299319 3.602006 -6.824211 0.936350 0.047539 8.824139 
2.564540 49.764935 -1.914669 2.809106 -0.429640 -0.849659 0.000000 0.000000 0.000000 -2.999294 -1.230521 0.057463 -0.619246 -2.241766 -8.326888 0.258162 7.448862 -10.252752 -6.027828 -7.970779 -2.580423 -56.666630 12.526465 -3.788834 -39.373249 -2.619429 27.802504 -0.409790 -5.159945 -3.348900 8.091165 9.269599 -2.707431 44.580338 -9.804324 -25.513788 30.654425 4.983230 -15.978861 -29.641918 -3.668177 -3.451160 0.673162 6.247468 5.669728 4.506430 -3.354497 13.759353 -6.485890 0.493845 -4.444348 -0.088778 -11.940044 -8.761316 -1.258720 3.541130 -7.297620 1.630371 0.167185 8.919606 
2.777513 49.774109 -2.126747 3.264596 -0.702768 -1.826394 0.000000 0.000000 0.000000 -3.077626 -1.336690 0.283299 -0.176510 -2.195559 -9.577438 -0.333714 7.471808 -11.642979 -5.439360 -8.578439 -2.644978 -61.493683 13.224748 -4.744912 -41.878098 -2.390383 23.428894 1.694826 -3.928599 -3.507983 8.624285 9.930662 -2.837916 48.244083 -11.912785 -25.184706 32.470001 4.906679 -14.227899 -28.388016 -2.799076 -3.649791 -0.391145 6.404231 5.684690 5.542240 -3.512449 14.541102 -6.955719 0.448256 -4.309524 -1.416427 -11.660872 -8.329957 -1.240354 3.414945 -8.924098 3.370875 0.313523 8.844450 
2.999682 49.773727 -2.364136 3.627919 -0.897363 -2.803155 0.000000 0.000000 0.000000 -2.872595 -1.494905 0.788709 -0.175046 -1.945363 -11.100535 0.459645 6.640432 -13.106006 -5.108509 -8.898873 -2.502033 -65.957695 13.397737 -6.046333 -43.113979 -2.332594 19.229490 2.743882 -2.797014 -3.561093 9.064493 10.075237 -2.639510 51.365971 -14.543517 -23.351801 33.606232 4.929103 -12.673313 -27.501036 -1.712794 -3.898342 -1.395476 6.418059 5.758086 6.593577 -3.656476 15.377440 -7.421144 0.460512 -4.052042 -2.490069 -11.508812 -8.188318 -1.527664 3.498650 -10.810832 5.026688 0.460825 8.471189 
3.239218 49.778122 -2.639227 3.586046 -0.984462 -3.526044 0.000000 0.000000 0.000000 -2.199096 -1.775691 1.138944 0.196934 -2.088505 -12.440333 0.852589 6.774487 -14.713602 -4.934976 -8.885673 -1.900903 -69.182907 13.111690 -5.569127 -43.018284 -2.695740 16.799562 3.634394 -0.704525 -3.567104 9.177473 10.236796 -1.991073 53.879150 -17.098076 -21.329967 34.792236 4.960339 -10.987247 -25.827749 -0.518780 -4.120868 -1.952888 6.247744 5.628963 7.231255 -3.621292 16.192289 -7.557692 0.442360 -3.900926 -3.251451 -11.421025 -8.208229 -1.737186 3.524148 -13.218008 6.879978 0.523472 7.850852 
3.461821 49.765659 -2.916408 3.155990 -1.334198 -4.259157 0.000000 0.000000 0.000000 -1.193646 -1.862659 1.049070 1.227293 -2.211891 -13.574883 0.508847 7.271413 -15.931172 -5.041531 -8.576708 -0.993481 -70.718719 12.968007 -2.876414 -42.379547 -3.729385 15.312972 5.864825 1.027843 -3.585323 8.860159 10.580050 -1.071802 56.280354 -18.407320 -20.931589 35.265484 4.820353 -8.530538 -24.729834 0.494900 -4.300219 -2.440419 6.353647 5.728965 8.611202 -3.546478 16.839918 -7.968867 0.382572 -3.835726 -3.748796 -11.126719 -8.309265 -1.804728 3.621112 -15.578384 8.990055 0.583063 6.467274 
3.657394 49.745182 -3.326057 3.336250 -1.361612 -5.177332 0.000000 0.000000 0.000000 -0.550912 -2.234956 0.534930 2.066532 -2.240080 -14.572076 0.643728 7.035349 -16.228945 -5.561769 -9.115965 -0.461912 -70.370621 13.677904 0.090576 -42.370811 -4.602577 17.272598 8.415718 1.220349 -3.629758 8.531234 10.737065 -0.502166 57.612934 -19.269533 -20.215574 35.493446 4.750279 -6.682647 -23.353933 1.005755 -4.355423 -3.541510 6.320751 5.771399 9.635711 -3.711862 17.691637 -8.123417 0.423092 -3.636093 -5.174881 -11.070447 -8.146438 -1.698546 3.651621 -17.377541 10.883410 0.563909 5.576941 
3.839803 49.773224 -3.727196 3.611082 -1.484026 -6.672226 0.000000 0.000000 0.000000 0.112729 -2.331360 0.033960 2.338767 -2.449440 -15.278186 1.924942 6.587209 -16.153463 -5.951530 -9.911469 0.089473 -69.450340 14.312449 2.149562 -42.632790 -5.002345 20.695597 10.849906 0.652891 -3.712994 7.915243 10.145810 0.136735 59.095444 -18.941879 -19.718107 35.178181 4.779808 -5.925582 -22.361561 1.106706 -4.326602 -4.185287 6.418171 5.920276 9.699108 -3.861356 19.324352 -7.811219 0.395011 -3.388990 -6.776032 -10.963326 -7.940238 -1.384768 3.845650 -18.374865 12.321997 0.677525 5.744451 
3.982346 49.778397 -4.098671 3.920890 -2.027590 -8.628662 0.000000 0.000000 0.000000 0.611522 -2.234238 -0.495100 2.798759 -2.494439 -15.454637 3.566448 6.815534 -15.787357 -6.332542 -10.117186 0.533084 -68.766617 15.551815 2.781017 -42.985924 -5.006597 21.257313 11.570004 0.717019 -3.740878 7.291146 9.938159 0.589267 59.931740 -18.929842 -19.310133 35.668076 4.795940 -5.582784 -20.928492 0.609009 -4.182840 -5.097096 7.117836 6.408688 10.847164 -4.083599 20.713936 -8.133309 0.395407 -3.423575 -7.926654 -10.326797 -7.250226 -1.406242 4.003623 -17.394304 13.617841 0.913635 6.920114 
4.142308 49.786434 -4.469178 4.587724 -2.312548 -10.712037 0.000000 0.000000 0.000000 0.768484 -2.227901 -0.946919 3.129584 -2.454226 -15.669260 5.042165 6.988204 -15.409445 -6.619746 -9.942789 0.690677 -68.324158 16.756832 2.392938 -42.931011 -5.004629 20.411936 12.676393 1.010003 -3.726573 6.906795 10.018138 0.717220 60.012932 -19.395212 -18.280344 36.223946 4.788972 -3.462328 -19.575855 -0.156650 -4.027497 -6.160700 7.458642 6.438847 11.537790 -4.003260 22.765974 -8.221290 0.415166 -3.629839 -9.257367 -10.126226 -6.693491 -1.355652 4.460114 -13.927211 14.388960 1.098172 7.937521 
4.252572 49.785553 -4.844945 5.170672 -2.958169 -13.103972 0.000000 0.000000 0.000000 1.052860 -1.900102 -1.007315 3.445191 -2.201399 -15.568504 6.382525 7.213772 -15.151546 -6.572692 -9.558809 1.003213 -67.649284 17.606060 1.388689 -43.157482 -5.008649 17.576345 11.756611 1.899119 -3.643898 6.747027 10.228690 0.945532 59.942642 -19.976469 -17.349075 36.758362 4.746774 -1.487128 -17.930914 -0.450359 -3.929091 -7.340960 8.345658 6.777687 12.936688 -3.905516 24.612406 -8.612676 0.449799 -4.025594 -10.289841 -9.752245 -6.190314 -1.250221 5.380736 -8.204967 14.733056 1.270967 8.971275 
4.320249 49.770260 -5.171268 5.856522 -3.210229 -15.435140 0.000000 0.000000 0.000000 1.150678 -1.829289 -0.984578 3.528054 -2.006204 -15.322370 7.625823 7.527711 -14.808089 -6.467609 -9.109221 1.100727 -66.337227 18.458824 0.664804 -43.396587 -5.005454 16.191360 8.406332 3.466072 -3.500492 6.398304 9.741670 1.091251 60.474209 -20.522316 -16.643166 36.897587 4.809003 -1.107035 -17.164547 -0.345145 -3.930528 -8.326456 8.969749 6.964792 13.956163 -3.861252 24.930525 -8.865338 0.487916 -4.558818 -11.217499 -9.986781 -5.970835 -1.131587 6.565607 -0.069469 14.637495 1.392666 9.959119 
4.293214 49.673878 -5.436666 6.172287 -3.591260 -17.242535 0.000000 0.000000 0.000000 1.405168 -1.681085 -1.077055 3.808872 -1.658949 -15.163032 8.264308 7.596809 -14.444969 -6.498668 -8.419965 1.383117 -64.308167 19.063631 1.025570 -43.321846 -5.001827 15.379274 5.351160 4.903924 -3.452058 6.305885 10.134368 1.300515 60.222790 -21.886780 -16.125523 37.713047 4.969785 -2.770980 -16.876913 -0.695527 -3.871212 -9.508016 9.829090 7.261389 16.186216 -3.848241 24.980530 -9.671589 0.537775 -5.299182 -11.265258 -10.415100 -6.063445 -1.036987 8.027148 9.152882 13.769683 1.408205 10.309888 
4.188839 49.593510 -5.670384 6.295706 -3.826294 -18.460808 0.000000 0.000000 0.000000 1.698904 -1.607753 -1.339022 3.992178 -1.432600 -15.180690 9.195996 7.612508 -13.972848 -6.709582 -7.881592 1.654028 -61.278061 19.241299 2.816103 -42.787762 -5.002388 14.939851 3.787714 5.818846 -3.453091 6.069717 10.611876 1.519869 59.910969 -23.172871 -16.480265 38.189114 4.959420 -4.006349 -15.491064 -0.482119 -3.859130 -10.242755 10.535235 7.545752 17.728882 -3.868080 24.978903 -10.083827 0.677373 -5.885491 -10.925345 -10.934520 -6.085594 -0.996169 8.758500 16.527020 13.347229 1.409344 10.788855 
4.039717 49.565006 -5.917444 6.467336 -3.918245 -19.285633 0.000000 0.000000 0.000000 1.846557 -1.397388 -1.604367 4.372171 -1.508486 -15.112856 9.402166 8.286366 -13.966780 -6.991853 -7.917866 1.801021 -57.270836 19.021023 5.227083 -42.019669 -5.004210 15.964754 2.100539 6.257413 -3.481679 5.786343 10.481148 1.648346 60.264759 -24.103298 -16.860260 37.507580 4.839224 -3.444450 -15.170490 0.150872 -3.925686 -10.700365 11.090083 7.715172 18.333469 -3.864232 24.953230 -10.033282 0.754765 -6.236330 -10.631545 -11.402016 -6.139682 -0.938935 8.764686 19.556829 12.968338 1.421087 10.729259 
3.812649 49.633373 -6.147089 6.710698 -3.911530 -19.941542 0.000000 0.000000 0.000000 1.877108 -1.188857 -1.888885 4.639105 -1.613593 -14.928193 9.748735 8.965963 -13.813554 -7.243852 -7.823324 1.838398 -54.018169 18.295660 6.247439 -40.528172 -5.001492 18.226934 0.463076 5.918993 -3.526600 5.514464 10.241942 1.677822 60.663651 -24.646778 -17.143393 36.303455 4.712351 -2.447584 -14.482651 0.857635 -3.991946 -10.525859 11.540758 7.885801 17.502890 -3.837927 24.951319 -9.350143 0.657535 -6.412652 -10.663092 -11.629554 -6.113315 0.096342 7.913311 17.593773 12.691871 1.246889 10.167365 
3.574944 49.736275 -6.317268 6.734845 -3.847744 -19.920073 0.000000 0.000000 0.000000 2.025651 -0.928795 -2.354828 4.820313 -1.536486 -15.152166 10.300568 9.191304 -13.635073 -7.614270 -7.581561 1.981966 -51.250546 17.022665 6.829863 -38.941132 -5.008437 20.084929 -0.510778 6.504380 -3.560200 4.947622 10.254970 1.788073 60.700535 -24.961752 -17.228796 35.012882 4.568434 -0.843746 -13.851245 1.690289 -4.053909 -9.926908 11.750565 8.038665 15.931438 -3.844693 24.931629 -8.302887 0.596132 -6.166618 -11.404276 -12.321451 -6.584309 3.707353 7.124696 12.063972 12.715455 1.248421 9.706116 
